<svg
  xmlns="http://www.w3.org/2000/svg"
  width="24"
  height="24"
  viewBox="0 0 24 24"
  fill="none"
  stroke="currentColor"
  stroke-width="2"
  stroke-linecap="round"
  stroke-linejoin="round"
>
  <path
    d="M3 20.1495a7.2 7.2 0 0 1 9.7395-6.738M20.4405 16.2135a1.9125 1.9125 0 0 0-2.7045-2.7045l-3.609 3.612a1.8 1.8 0 0 0-.4545.768l-.753 2.583a.45.45 0 0 0 .558.558l2.583-.753c.2895-.0855.555-.2415.768-.456l3.612-3.6075Z"
  />
  <path d="M10.2 12.9495a4.5 4.5 0 1 0 0-9 4.5 4.5 0 0 0 0 9Z" />
</svg>
